<svg width="40" height="40" viewBox="0 0 40 40" fill="none" xmlns="http://www.w3.org/2000/svg">
<path d="M19.9998 3.50664e-05C15.4512 -0.0085098 11.0374 1.54482 7.4965 4.40002C7.28288 4.57214 7.07597 4.74456 6.86907 4.924C6.16991 5.5194 5.51959 6.16972 4.9242 6.86887C4.79999 7.01353 4.67579 7.15848 4.55188 7.31015C-1.98493 15.2572 -1.42097 26.8684 5.85498 34.1446C13.1312 41.4206 24.7425 41.9845 32.6895 35.448C32.8412 35.3238 32.9861 35.1996 33.1308 35.0754C33.8299 34.48 34.4802 33.8297 35.0756 33.1306C35.2551 32.9236 35.4342 32.7167 35.5999 32.5031C40.414 26.5043 41.3598 18.2753 38.0316 11.3409C34.7033 4.40643 27.6917 -0.00362702 19.9998 3.50664e-05ZM19.9998 35.8615C13.9381 35.8661 8.40501 32.4131 5.74511 26.9661C3.08553 21.519 3.76545 15.0323 7.4965 10.2551L29.7446 32.5031C26.9623 34.679 23.5318 35.8612 19.9998 35.8615ZM32.648 29.5515L10.4414 7.35166C16.7506 2.57081 25.6198 3.17841 31.2182 8.77498C36.8163 14.3716 37.427 23.2408 32.648 29.5515Z" fill="#5C5C7B"/>
</svg>
